<?xml version="1.0" encoding="UTF-8"?>
<svg xmlns="http://www.w3.org/2000/svg" viewBox="0 0 400 400" width="400" height="400">
  <defs>
    <radialGradient id="g" cx="50%" cy="50%" r="50%">
      <stop offset="0%" stop-color="#F4EBD0"/>
      <stop offset="55%" stop-color="#C9A227"/>
      <stop offset="100%" stop-color="#2A1A0A"/>
    </radialGradient>
  </defs>
  <circle cx="200" cy="200" r="18" fill="url(#g)"/>
  <circle cx="200.0" cy="130.0" r="8" fill="none" stroke="#C9A227" stroke-width="2" opacity="0.55"/>
  <circle cx="239.9" cy="110.5" r="7" fill="none" stroke="#C9A227" stroke-width="2" opacity="0.67"/>
  <circle cx="293.6" cy="115.7" r="6" fill="none" stroke="#C9A227" stroke-width="2" opacity="0.79"/>
  <circle cx="266.6" cy="178.4" r="8" fill="none" stroke="#C9A227" stroke-width="2" opacity="0.55"/>
  <circle cx="297.5" cy="210.2" r="7" fill="none" stroke="#C9A227" stroke-width="2" opacity="0.67"/>
  <circle cx="309.1" cy="263.0" r="6" fill="none" stroke="#C9A227" stroke-width="2" opacity="0.79"/>
  <circle cx="241.1" cy="256.6" r="8" fill="none" stroke="#C9A227" stroke-width="2" opacity="0.55"/>
  <circle cx="220.4" cy="295.9" r="7" fill="none" stroke="#C9A227" stroke-width="2" opacity="0.67"/>
  <circle cx="173.8" cy="323.2" r="6" fill="none" stroke="#C9A227" stroke-width="2" opacity="0.79"/>
  <circle cx="158.9" cy="256.6" r="8" fill="none" stroke="#C9A227" stroke-width="2" opacity="0.55"/>
  <circle cx="115.1" cy="249.0" r="7" fill="none" stroke="#C9A227" stroke-width="2" opacity="0.67"/>
  <circle cx="74.7" cy="213.2" r="6" fill="none" stroke="#C9A227" stroke-width="2" opacity="0.79"/>
  <circle cx="133.4" cy="178.4" r="8" fill="none" stroke="#C9A227" stroke-width="2" opacity="0.55"/>
  <circle cx="127.2" cy="134.4" r="7" fill="none" stroke="#C9A227" stroke-width="2" opacity="0.67"/>
  <circle cx="148.8" cy="84.9" r="6" fill="none" stroke="#C9A227" stroke-width="2" opacity="0.79"/>
  <ellipse cx="200" cy="200" rx="110" ry="48" fill="none" stroke="#F4EBD0" stroke-width="2" opacity="0.7"/>
  <circle cx="200" cy="200" r="8" fill="#07090F"/>
</svg>